<mxfile host="app.diagrams.net" modified="2022-12-29T09:03:39.756Z" agent="5.0 (Macintosh; Intel Mac OS X 10_15_7) AppleWebKit/537.36 (KHTML, like Gecko) Chrome/108.0.0.0 Safari/537.36" etag="1edOJaC5F040hMtG-k-K" version="20.7.4" type="github">
  <diagram id="C5RBs43oDa-KdzZeNtuy" name="Page-1">
    <mxGraphModel dx="2509" dy="1080" grid="1" gridSize="10" guides="1" tooltips="1" connect="1" arrows="1" fold="1" page="1" pageScale="1" pageWidth="827" pageHeight="1169" math="0" shadow="0">
      <root>
        <mxCell id="WIyWlLk6GJQsqaUBKTNV-0" />
        <mxCell id="WIyWlLk6GJQsqaUBKTNV-1" parent="WIyWlLk6GJQsqaUBKTNV-0" />
        <mxCell id="WIyWlLk6GJQsqaUBKTNV-2" value="" style="rounded=0;html=1;jettySize=auto;orthogonalLoop=1;fontSize=11;endArrow=block;endFill=0;endSize=8;strokeWidth=1;shadow=0;labelBackgroundColor=none;edgeStyle=orthogonalEdgeStyle;" parent="WIyWlLk6GJQsqaUBKTNV-1" source="WIyWlLk6GJQsqaUBKTNV-3" target="WIyWlLk6GJQsqaUBKTNV-6" edge="1">
          <mxGeometry relative="1" as="geometry" />
        </mxCell>
        <mxCell id="WIyWlLk6GJQsqaUBKTNV-3" value="WEB端H5跳转地址页面" style="rounded=1;whiteSpace=wrap;html=1;fontSize=12;glass=0;strokeWidth=1;shadow=0;" parent="WIyWlLk6GJQsqaUBKTNV-1" vertex="1">
          <mxGeometry x="265" y="95" width="170" height="40" as="geometry" />
        </mxCell>
        <mxCell id="WIyWlLk6GJQsqaUBKTNV-4" value="Yes" style="rounded=0;html=1;jettySize=auto;orthogonalLoop=1;fontSize=11;endArrow=block;endFill=0;endSize=8;strokeWidth=1;shadow=0;labelBackgroundColor=none;edgeStyle=orthogonalEdgeStyle;" parent="WIyWlLk6GJQsqaUBKTNV-1" source="WIyWlLk6GJQsqaUBKTNV-6" target="iKn1gVGQJVKMj80JLHPA-28" edge="1">
          <mxGeometry y="20" relative="1" as="geometry">
            <mxPoint as="offset" />
            <mxPoint x="350" y="305" as="targetPoint" />
          </mxGeometry>
        </mxCell>
        <mxCell id="WIyWlLk6GJQsqaUBKTNV-5" value="No" style="edgeStyle=orthogonalEdgeStyle;rounded=0;html=1;jettySize=auto;orthogonalLoop=1;fontSize=11;endArrow=block;endFill=0;endSize=8;strokeWidth=1;shadow=0;labelBackgroundColor=none;" parent="WIyWlLk6GJQsqaUBKTNV-1" source="WIyWlLk6GJQsqaUBKTNV-6" target="WIyWlLk6GJQsqaUBKTNV-7" edge="1">
          <mxGeometry y="10" relative="1" as="geometry">
            <mxPoint as="offset" />
          </mxGeometry>
        </mxCell>
        <mxCell id="WIyWlLk6GJQsqaUBKTNV-6" value="是否可以&lt;br&gt;通过统一身份认证" style="rhombus;whiteSpace=wrap;html=1;shadow=0;fontFamily=Helvetica;fontSize=12;align=center;strokeWidth=1;spacing=6;spacingTop=-4;fillColor=#dae8fc;strokeColor=#6c8ebf;" parent="WIyWlLk6GJQsqaUBKTNV-1" vertex="1">
          <mxGeometry x="260" y="180" width="180" height="80" as="geometry" />
        </mxCell>
        <mxCell id="WIyWlLk6GJQsqaUBKTNV-7" value="统一身份认证登录页面" style="rounded=1;whiteSpace=wrap;html=1;fontSize=12;glass=0;strokeWidth=1;shadow=0;fillColor=#f8cecc;strokeColor=#b85450;" parent="WIyWlLk6GJQsqaUBKTNV-1" vertex="1">
          <mxGeometry x="490" y="200" width="150" height="40" as="geometry" />
        </mxCell>
        <mxCell id="WIyWlLk6GJQsqaUBKTNV-8" value="" style="rounded=0;html=1;jettySize=auto;orthogonalLoop=1;fontSize=11;endArrow=block;endFill=0;endSize=8;strokeWidth=1;shadow=0;labelBackgroundColor=none;edgeStyle=orthogonalEdgeStyle;exitX=0.5;exitY=1;exitDx=0;exitDy=0;" parent="WIyWlLk6GJQsqaUBKTNV-1" source="iKn1gVGQJVKMj80JLHPA-28" target="iKn1gVGQJVKMj80JLHPA-29" edge="1">
          <mxGeometry x="0.2727" y="30" relative="1" as="geometry">
            <mxPoint as="offset" />
            <mxPoint x="350" y="395" as="sourcePoint" />
            <mxPoint x="350" y="470" as="targetPoint" />
          </mxGeometry>
        </mxCell>
        <mxCell id="iKn1gVGQJVKMj80JLHPA-2" style="edgeStyle=orthogonalEdgeStyle;rounded=0;orthogonalLoop=1;jettySize=auto;html=1;entryX=0;entryY=0.25;entryDx=0;entryDy=0;" edge="1" parent="WIyWlLk6GJQsqaUBKTNV-1" source="iKn1gVGQJVKMj80JLHPA-1" target="WIyWlLk6GJQsqaUBKTNV-3">
          <mxGeometry relative="1" as="geometry">
            <mxPoint x="250" y="105" as="targetPoint" />
          </mxGeometry>
        </mxCell>
        <mxCell id="iKn1gVGQJVKMj80JLHPA-3" style="edgeStyle=orthogonalEdgeStyle;rounded=0;orthogonalLoop=1;jettySize=auto;html=1;" edge="1" parent="WIyWlLk6GJQsqaUBKTNV-1" source="iKn1gVGQJVKMj80JLHPA-1" target="iKn1gVGQJVKMj80JLHPA-28">
          <mxGeometry relative="1" as="geometry">
            <mxPoint x="270" y="350" as="targetPoint" />
            <Array as="points">
              <mxPoint x="185" y="130" />
              <mxPoint x="185" y="330" />
            </Array>
          </mxGeometry>
        </mxCell>
        <mxCell id="iKn1gVGQJVKMj80JLHPA-10" value="拦截" style="edgeLabel;html=1;align=center;verticalAlign=middle;resizable=0;points=[];" vertex="1" connectable="0" parent="iKn1gVGQJVKMj80JLHPA-3">
          <mxGeometry x="-0.1692" y="-3" relative="1" as="geometry">
            <mxPoint as="offset" />
          </mxGeometry>
        </mxCell>
        <mxCell id="iKn1gVGQJVKMj80JLHPA-4" style="edgeStyle=orthogonalEdgeStyle;rounded=0;orthogonalLoop=1;jettySize=auto;html=1;" edge="1" parent="WIyWlLk6GJQsqaUBKTNV-1" source="iKn1gVGQJVKMj80JLHPA-1" target="iKn1gVGQJVKMj80JLHPA-5">
          <mxGeometry relative="1" as="geometry">
            <mxPoint x="120" y="550" as="targetPoint" />
          </mxGeometry>
        </mxCell>
        <mxCell id="iKn1gVGQJVKMj80JLHPA-11" value="拦截" style="edgeLabel;html=1;align=center;verticalAlign=middle;resizable=0;points=[];" vertex="1" connectable="0" parent="iKn1gVGQJVKMj80JLHPA-4">
          <mxGeometry x="-0.0526" relative="1" as="geometry">
            <mxPoint as="offset" />
          </mxGeometry>
        </mxCell>
        <mxCell id="iKn1gVGQJVKMj80JLHPA-1" value="" style="fontColor=#0066CC;verticalAlign=top;verticalLabelPosition=bottom;labelPosition=center;align=center;html=1;outlineConnect=0;fillColor=#CCCCCC;strokeColor=#6881B3;gradientColor=none;gradientDirection=north;strokeWidth=2;shape=mxgraph.networks.pc;" vertex="1" parent="WIyWlLk6GJQsqaUBKTNV-1">
          <mxGeometry x="35" y="75" width="90" height="60" as="geometry" />
        </mxCell>
        <mxCell id="iKn1gVGQJVKMj80JLHPA-8" value="" style="edgeStyle=orthogonalEdgeStyle;rounded=0;orthogonalLoop=1;jettySize=auto;html=1;" edge="1" parent="WIyWlLk6GJQsqaUBKTNV-1" source="iKn1gVGQJVKMj80JLHPA-5" target="iKn1gVGQJVKMj80JLHPA-7">
          <mxGeometry relative="1" as="geometry" />
        </mxCell>
        <mxCell id="iKn1gVGQJVKMj80JLHPA-5" value="WEB端业务页" style="rounded=0;whiteSpace=wrap;html=1;" vertex="1" parent="WIyWlLk6GJQsqaUBKTNV-1">
          <mxGeometry x="20" y="320" width="120" height="60" as="geometry" />
        </mxCell>
        <mxCell id="iKn1gVGQJVKMj80JLHPA-13" value="" style="edgeStyle=orthogonalEdgeStyle;rounded=0;orthogonalLoop=1;jettySize=auto;html=1;" edge="1" parent="WIyWlLk6GJQsqaUBKTNV-1" source="iKn1gVGQJVKMj80JLHPA-7" target="iKn1gVGQJVKMj80JLHPA-12">
          <mxGeometry relative="1" as="geometry" />
        </mxCell>
        <mxCell id="iKn1gVGQJVKMj80JLHPA-16" value="" style="edgeStyle=orthogonalEdgeStyle;rounded=0;orthogonalLoop=1;jettySize=auto;html=1;" edge="1" parent="WIyWlLk6GJQsqaUBKTNV-1" source="iKn1gVGQJVKMj80JLHPA-7" target="iKn1gVGQJVKMj80JLHPA-17">
          <mxGeometry relative="1" as="geometry">
            <mxPoint x="-110" y="475" as="targetPoint" />
          </mxGeometry>
        </mxCell>
        <mxCell id="iKn1gVGQJVKMj80JLHPA-18" value="No" style="edgeLabel;html=1;align=center;verticalAlign=middle;resizable=0;points=[];" vertex="1" connectable="0" parent="iKn1gVGQJVKMj80JLHPA-16">
          <mxGeometry x="-0.1692" relative="1" as="geometry">
            <mxPoint x="10" y="-15" as="offset" />
          </mxGeometry>
        </mxCell>
        <mxCell id="iKn1gVGQJVKMj80JLHPA-7" value="是否存在&lt;br&gt;h5_access_token" style="rhombus;whiteSpace=wrap;html=1;rounded=0;fillColor=#f9f7ed;strokeColor=#36393d;" vertex="1" parent="WIyWlLk6GJQsqaUBKTNV-1">
          <mxGeometry x="-5" y="430" width="170" height="70" as="geometry" />
        </mxCell>
        <mxCell id="iKn1gVGQJVKMj80JLHPA-9" value="正常" style="text;html=1;align=center;verticalAlign=middle;resizable=0;points=[];autosize=1;strokeColor=none;fillColor=none;" vertex="1" parent="WIyWlLk6GJQsqaUBKTNV-1">
          <mxGeometry x="135" y="85" width="50" height="30" as="geometry" />
        </mxCell>
        <mxCell id="iKn1gVGQJVKMj80JLHPA-20" value="" style="edgeStyle=orthogonalEdgeStyle;rounded=0;orthogonalLoop=1;jettySize=auto;html=1;exitX=0;exitY=0.5;exitDx=0;exitDy=0;" edge="1" parent="WIyWlLk6GJQsqaUBKTNV-1" source="iKn1gVGQJVKMj80JLHPA-23" target="iKn1gVGQJVKMj80JLHPA-19">
          <mxGeometry relative="1" as="geometry" />
        </mxCell>
        <mxCell id="iKn1gVGQJVKMj80JLHPA-24" style="edgeStyle=orthogonalEdgeStyle;rounded=0;orthogonalLoop=1;jettySize=auto;html=1;" edge="1" parent="WIyWlLk6GJQsqaUBKTNV-1" source="iKn1gVGQJVKMj80JLHPA-12" target="iKn1gVGQJVKMj80JLHPA-23">
          <mxGeometry relative="1" as="geometry" />
        </mxCell>
        <mxCell id="iKn1gVGQJVKMj80JLHPA-12" value="请求业务接口" style="whiteSpace=wrap;html=1;rounded=0;fillColor=#ffff88;strokeColor=#36393d;" vertex="1" parent="WIyWlLk6GJQsqaUBKTNV-1">
          <mxGeometry x="20" y="555" width="120" height="60" as="geometry" />
        </mxCell>
        <mxCell id="iKn1gVGQJVKMj80JLHPA-14" value="Yes" style="text;html=1;align=center;verticalAlign=middle;resizable=0;points=[];autosize=1;strokeColor=none;fillColor=none;" vertex="1" parent="WIyWlLk6GJQsqaUBKTNV-1">
          <mxGeometry x="80" y="510" width="40" height="30" as="geometry" />
        </mxCell>
        <mxCell id="iKn1gVGQJVKMj80JLHPA-17" value="统一身份认证登录页面" style="rounded=1;whiteSpace=wrap;html=1;fontSize=12;glass=0;strokeWidth=1;shadow=0;fillColor=#f8cecc;strokeColor=#b85450;" vertex="1" parent="WIyWlLk6GJQsqaUBKTNV-1">
          <mxGeometry x="-175" y="445" width="150" height="40" as="geometry" />
        </mxCell>
        <mxCell id="iKn1gVGQJVKMj80JLHPA-38" style="edgeStyle=orthogonalEdgeStyle;rounded=0;orthogonalLoop=1;jettySize=auto;html=1;" edge="1" parent="WIyWlLk6GJQsqaUBKTNV-1" source="iKn1gVGQJVKMj80JLHPA-19" target="iKn1gVGQJVKMj80JLHPA-37">
          <mxGeometry relative="1" as="geometry" />
        </mxCell>
        <mxCell id="iKn1gVGQJVKMj80JLHPA-19" value="提示" style="whiteSpace=wrap;html=1;rounded=0;" vertex="1" parent="WIyWlLk6GJQsqaUBKTNV-1">
          <mxGeometry x="-160" y="680" width="120" height="40" as="geometry" />
        </mxCell>
        <mxCell id="iKn1gVGQJVKMj80JLHPA-26" style="edgeStyle=orthogonalEdgeStyle;rounded=0;orthogonalLoop=1;jettySize=auto;html=1;" edge="1" parent="WIyWlLk6GJQsqaUBKTNV-1" source="iKn1gVGQJVKMj80JLHPA-23" target="iKn1gVGQJVKMj80JLHPA-25">
          <mxGeometry relative="1" as="geometry" />
        </mxCell>
        <mxCell id="iKn1gVGQJVKMj80JLHPA-23" value="返回码判断" style="rhombus;whiteSpace=wrap;html=1;rounded=0;" vertex="1" parent="WIyWlLk6GJQsqaUBKTNV-1">
          <mxGeometry x="7.5" y="670" width="145" height="60" as="geometry" />
        </mxCell>
        <mxCell id="iKn1gVGQJVKMj80JLHPA-25" value="正常业务" style="whiteSpace=wrap;html=1;rounded=0;" vertex="1" parent="WIyWlLk6GJQsqaUBKTNV-1">
          <mxGeometry x="20" y="780" width="120" height="60" as="geometry" />
        </mxCell>
        <mxCell id="iKn1gVGQJVKMj80JLHPA-27" value="WEB端用户" style="text;html=1;align=center;verticalAlign=middle;resizable=0;points=[];autosize=1;strokeColor=none;fillColor=none;" vertex="1" parent="WIyWlLk6GJQsqaUBKTNV-1">
          <mxGeometry x="35" y="45" width="90" height="30" as="geometry" />
        </mxCell>
        <mxCell id="iKn1gVGQJVKMj80JLHPA-28" value="WEB首页" style="rounded=0;whiteSpace=wrap;html=1;fillColor=#d5e8d4;strokeColor=#82b366;" vertex="1" parent="WIyWlLk6GJQsqaUBKTNV-1">
          <mxGeometry x="271.5" y="300" width="157.5" height="70" as="geometry" />
        </mxCell>
        <mxCell id="iKn1gVGQJVKMj80JLHPA-33" style="edgeStyle=orthogonalEdgeStyle;rounded=0;orthogonalLoop=1;jettySize=auto;html=1;" edge="1" parent="WIyWlLk6GJQsqaUBKTNV-1" source="iKn1gVGQJVKMj80JLHPA-29" target="iKn1gVGQJVKMj80JLHPA-32">
          <mxGeometry relative="1" as="geometry" />
        </mxCell>
        <mxCell id="iKn1gVGQJVKMj80JLHPA-45" style="edgeStyle=orthogonalEdgeStyle;rounded=0;orthogonalLoop=1;jettySize=auto;html=1;entryX=0.5;entryY=0;entryDx=0;entryDy=0;" edge="1" parent="WIyWlLk6GJQsqaUBKTNV-1" source="iKn1gVGQJVKMj80JLHPA-29" target="iKn1gVGQJVKMj80JLHPA-42">
          <mxGeometry relative="1" as="geometry" />
        </mxCell>
        <mxCell id="iKn1gVGQJVKMj80JLHPA-29" value="判断URL是否&lt;br&gt;带有&lt;span style=&quot;color: rgb(95, 143, 191); background-color: rgb(255, 255, 254);&quot;&gt;code参数&lt;/span&gt;" style="rhombus;whiteSpace=wrap;html=1;" vertex="1" parent="WIyWlLk6GJQsqaUBKTNV-1">
          <mxGeometry x="270" y="400" width="160" height="60" as="geometry" />
        </mxCell>
        <mxCell id="iKn1gVGQJVKMj80JLHPA-78" style="edgeStyle=orthogonalEdgeStyle;rounded=0;orthogonalLoop=1;jettySize=auto;html=1;" edge="1" parent="WIyWlLk6GJQsqaUBKTNV-1" source="iKn1gVGQJVKMj80JLHPA-32" target="iKn1gVGQJVKMj80JLHPA-76">
          <mxGeometry relative="1" as="geometry" />
        </mxCell>
        <mxCell id="iKn1gVGQJVKMj80JLHPA-86" style="edgeStyle=orthogonalEdgeStyle;rounded=0;orthogonalLoop=1;jettySize=auto;html=1;" edge="1" parent="WIyWlLk6GJQsqaUBKTNV-1" source="iKn1gVGQJVKMj80JLHPA-32" target="iKn1gVGQJVKMj80JLHPA-84">
          <mxGeometry relative="1" as="geometry" />
        </mxCell>
        <mxCell id="iKn1gVGQJVKMj80JLHPA-32" value="是否存在&lt;br&gt;h5_access_token" style="rhombus;whiteSpace=wrap;html=1;fillColor=#f9f7ed;strokeColor=#36393d;" vertex="1" parent="WIyWlLk6GJQsqaUBKTNV-1">
          <mxGeometry x="470" y="400" width="160" height="60" as="geometry" />
        </mxCell>
        <mxCell id="iKn1gVGQJVKMj80JLHPA-37" value="统一身份认证登录页面" style="rounded=1;whiteSpace=wrap;html=1;fontSize=12;glass=0;strokeWidth=1;shadow=0;fillColor=#f8cecc;strokeColor=#b85450;" vertex="1" parent="WIyWlLk6GJQsqaUBKTNV-1">
          <mxGeometry x="-175" y="790" width="150" height="40" as="geometry" />
        </mxCell>
        <mxCell id="iKn1gVGQJVKMj80JLHPA-39" value="No" style="text;html=1;align=center;verticalAlign=middle;resizable=0;points=[];autosize=1;strokeColor=none;fillColor=none;" vertex="1" parent="WIyWlLk6GJQsqaUBKTNV-1">
          <mxGeometry x="430" y="400" width="40" height="30" as="geometry" />
        </mxCell>
        <mxCell id="iKn1gVGQJVKMj80JLHPA-41" value="Yes" style="text;html=1;align=center;verticalAlign=middle;resizable=0;points=[];autosize=1;strokeColor=none;fillColor=none;" vertex="1" parent="WIyWlLk6GJQsqaUBKTNV-1">
          <mxGeometry x="350" y="460" width="40" height="30" as="geometry" />
        </mxCell>
        <mxCell id="iKn1gVGQJVKMj80JLHPA-57" style="edgeStyle=orthogonalEdgeStyle;rounded=0;orthogonalLoop=1;jettySize=auto;html=1;entryX=0.5;entryY=0;entryDx=0;entryDy=0;" edge="1" parent="WIyWlLk6GJQsqaUBKTNV-1" source="iKn1gVGQJVKMj80JLHPA-42" target="iKn1gVGQJVKMj80JLHPA-51">
          <mxGeometry relative="1" as="geometry" />
        </mxCell>
        <mxCell id="iKn1gVGQJVKMj80JLHPA-42" value="调用获取&lt;br style=&quot;border-color: var(--border-color);&quot;&gt;H5应用信息接口" style="rounded=0;whiteSpace=wrap;html=1;fillColor=#ffff88;strokeColor=#36393d;" vertex="1" parent="WIyWlLk6GJQsqaUBKTNV-1">
          <mxGeometry x="268" y="498.75" width="164" height="52.5" as="geometry" />
        </mxCell>
        <mxCell id="iKn1gVGQJVKMj80JLHPA-59" style="edgeStyle=orthogonalEdgeStyle;rounded=0;orthogonalLoop=1;jettySize=auto;html=1;" edge="1" parent="WIyWlLk6GJQsqaUBKTNV-1" source="iKn1gVGQJVKMj80JLHPA-47" target="iKn1gVGQJVKMj80JLHPA-52">
          <mxGeometry relative="1" as="geometry" />
        </mxCell>
        <mxCell id="iKn1gVGQJVKMj80JLHPA-47" value="调用获取&lt;br style=&quot;border-color: var(--border-color);&quot;&gt;H5应用access_token" style="rounded=0;whiteSpace=wrap;html=1;fillColor=#ffff88;strokeColor=#36393d;" vertex="1" parent="WIyWlLk6GJQsqaUBKTNV-1">
          <mxGeometry x="268" y="673.75" width="164" height="52.5" as="geometry" />
        </mxCell>
        <mxCell id="iKn1gVGQJVKMj80JLHPA-56" style="edgeStyle=orthogonalEdgeStyle;rounded=0;orthogonalLoop=1;jettySize=auto;html=1;" edge="1" parent="WIyWlLk6GJQsqaUBKTNV-1" source="iKn1gVGQJVKMj80JLHPA-48" target="iKn1gVGQJVKMj80JLHPA-53">
          <mxGeometry relative="1" as="geometry" />
        </mxCell>
        <mxCell id="iKn1gVGQJVKMj80JLHPA-69" value="" style="edgeStyle=orthogonalEdgeStyle;rounded=0;orthogonalLoop=1;jettySize=auto;html=1;" edge="1" parent="WIyWlLk6GJQsqaUBKTNV-1" source="iKn1gVGQJVKMj80JLHPA-48" target="iKn1gVGQJVKMj80JLHPA-68">
          <mxGeometry relative="1" as="geometry" />
        </mxCell>
        <mxCell id="iKn1gVGQJVKMj80JLHPA-48" value="调用获取&lt;br style=&quot;border-color: var(--border-color);&quot;&gt;登录用户的信息接口" style="rounded=0;whiteSpace=wrap;html=1;fillColor=#ffff88;strokeColor=#36393d;" vertex="1" parent="WIyWlLk6GJQsqaUBKTNV-1">
          <mxGeometry x="268" y="855" width="164" height="52.5" as="geometry" />
        </mxCell>
        <mxCell id="iKn1gVGQJVKMj80JLHPA-58" style="edgeStyle=orthogonalEdgeStyle;rounded=0;orthogonalLoop=1;jettySize=auto;html=1;" edge="1" parent="WIyWlLk6GJQsqaUBKTNV-1" source="iKn1gVGQJVKMj80JLHPA-51" target="iKn1gVGQJVKMj80JLHPA-47">
          <mxGeometry relative="1" as="geometry" />
        </mxCell>
        <mxCell id="iKn1gVGQJVKMj80JLHPA-65" style="edgeStyle=orthogonalEdgeStyle;rounded=0;orthogonalLoop=1;jettySize=auto;html=1;" edge="1" parent="WIyWlLk6GJQsqaUBKTNV-1" source="iKn1gVGQJVKMj80JLHPA-51" target="iKn1gVGQJVKMj80JLHPA-62">
          <mxGeometry relative="1" as="geometry" />
        </mxCell>
        <mxCell id="iKn1gVGQJVKMj80JLHPA-51" value="返回码判断" style="rhombus;whiteSpace=wrap;html=1;rounded=0;" vertex="1" parent="WIyWlLk6GJQsqaUBKTNV-1">
          <mxGeometry x="277.5" y="580" width="145" height="60" as="geometry" />
        </mxCell>
        <mxCell id="iKn1gVGQJVKMj80JLHPA-60" style="edgeStyle=orthogonalEdgeStyle;rounded=0;orthogonalLoop=1;jettySize=auto;html=1;" edge="1" parent="WIyWlLk6GJQsqaUBKTNV-1" source="iKn1gVGQJVKMj80JLHPA-52" target="iKn1gVGQJVKMj80JLHPA-48">
          <mxGeometry relative="1" as="geometry" />
        </mxCell>
        <mxCell id="iKn1gVGQJVKMj80JLHPA-66" style="edgeStyle=orthogonalEdgeStyle;rounded=0;orthogonalLoop=1;jettySize=auto;html=1;entryX=0.5;entryY=1;entryDx=0;entryDy=0;" edge="1" parent="WIyWlLk6GJQsqaUBKTNV-1" source="iKn1gVGQJVKMj80JLHPA-52" target="iKn1gVGQJVKMj80JLHPA-62">
          <mxGeometry relative="1" as="geometry" />
        </mxCell>
        <mxCell id="iKn1gVGQJVKMj80JLHPA-52" value="返回码判断" style="rhombus;whiteSpace=wrap;html=1;rounded=0;" vertex="1" parent="WIyWlLk6GJQsqaUBKTNV-1">
          <mxGeometry x="277.5" y="758.25" width="145" height="60" as="geometry" />
        </mxCell>
        <mxCell id="iKn1gVGQJVKMj80JLHPA-67" style="edgeStyle=orthogonalEdgeStyle;rounded=0;orthogonalLoop=1;jettySize=auto;html=1;entryX=0.75;entryY=1;entryDx=0;entryDy=0;" edge="1" parent="WIyWlLk6GJQsqaUBKTNV-1" source="iKn1gVGQJVKMj80JLHPA-53" target="iKn1gVGQJVKMj80JLHPA-62">
          <mxGeometry relative="1" as="geometry" />
        </mxCell>
        <mxCell id="iKn1gVGQJVKMj80JLHPA-53" value="返回码判断" style="rhombus;whiteSpace=wrap;html=1;rounded=0;" vertex="1" parent="WIyWlLk6GJQsqaUBKTNV-1">
          <mxGeometry x="487" y="851.25" width="145" height="60" as="geometry" />
        </mxCell>
        <mxCell id="iKn1gVGQJVKMj80JLHPA-64" style="edgeStyle=orthogonalEdgeStyle;rounded=0;orthogonalLoop=1;jettySize=auto;html=1;" edge="1" parent="WIyWlLk6GJQsqaUBKTNV-1" source="iKn1gVGQJVKMj80JLHPA-62" target="iKn1gVGQJVKMj80JLHPA-63">
          <mxGeometry relative="1" as="geometry" />
        </mxCell>
        <mxCell id="iKn1gVGQJVKMj80JLHPA-62" value="提示" style="whiteSpace=wrap;html=1;rounded=0;" vertex="1" parent="WIyWlLk6GJQsqaUBKTNV-1">
          <mxGeometry x="470" y="590" width="120" height="40" as="geometry" />
        </mxCell>
        <mxCell id="iKn1gVGQJVKMj80JLHPA-63" value="统一身份认证登录页面" style="rounded=1;whiteSpace=wrap;html=1;fontSize=12;glass=0;strokeWidth=1;shadow=0;fillColor=#f8cecc;strokeColor=#b85450;" vertex="1" parent="WIyWlLk6GJQsqaUBKTNV-1">
          <mxGeometry x="630" y="590" width="150" height="40" as="geometry" />
        </mxCell>
        <mxCell id="iKn1gVGQJVKMj80JLHPA-68" value="WEB首页业务接口" style="whiteSpace=wrap;html=1;rounded=0;fillColor=#ffff88;strokeColor=#36393d;" vertex="1" parent="WIyWlLk6GJQsqaUBKTNV-1">
          <mxGeometry x="275" y="950" width="150" height="70" as="geometry" />
        </mxCell>
        <mxCell id="iKn1gVGQJVKMj80JLHPA-75" value="" style="edgeStyle=orthogonalEdgeStyle;rounded=0;orthogonalLoop=1;jettySize=auto;html=1;" edge="1" parent="WIyWlLk6GJQsqaUBKTNV-1" source="iKn1gVGQJVKMj80JLHPA-76" target="iKn1gVGQJVKMj80JLHPA-77">
          <mxGeometry relative="1" as="geometry" />
        </mxCell>
        <mxCell id="iKn1gVGQJVKMj80JLHPA-76" value="调用获取&lt;br style=&quot;border-color: var(--border-color);&quot;&gt;登录用户的信息接口" style="rounded=0;whiteSpace=wrap;html=1;fillColor=#ffff88;strokeColor=#36393d;" vertex="1" parent="WIyWlLk6GJQsqaUBKTNV-1">
          <mxGeometry x="685" y="404" width="164" height="52.5" as="geometry" />
        </mxCell>
        <mxCell id="iKn1gVGQJVKMj80JLHPA-77" value="WEB首页业务接口" style="whiteSpace=wrap;html=1;rounded=0;fillColor=#ffff88;strokeColor=#36393d;" vertex="1" parent="WIyWlLk6GJQsqaUBKTNV-1">
          <mxGeometry x="692" y="490" width="150" height="70" as="geometry" />
        </mxCell>
        <mxCell id="iKn1gVGQJVKMj80JLHPA-79" value="Yes" style="text;html=1;align=center;verticalAlign=middle;resizable=0;points=[];autosize=1;strokeColor=none;fillColor=none;" vertex="1" parent="WIyWlLk6GJQsqaUBKTNV-1">
          <mxGeometry x="630" y="400" width="40" height="30" as="geometry" />
        </mxCell>
        <mxCell id="iKn1gVGQJVKMj80JLHPA-82" value="No" style="text;html=1;align=center;verticalAlign=middle;resizable=0;points=[];autosize=1;strokeColor=none;fillColor=none;" vertex="1" parent="WIyWlLk6GJQsqaUBKTNV-1">
          <mxGeometry x="550" y="460" width="40" height="30" as="geometry" />
        </mxCell>
        <mxCell id="iKn1gVGQJVKMj80JLHPA-84" value="统一身份认证登录页面" style="rounded=1;whiteSpace=wrap;html=1;fontSize=12;glass=0;strokeWidth=1;shadow=0;fillColor=#f8cecc;strokeColor=#b85450;" vertex="1" parent="WIyWlLk6GJQsqaUBKTNV-1">
          <mxGeometry x="475" y="505" width="150" height="40" as="geometry" />
        </mxCell>
        <mxCell id="iKn1gVGQJVKMj80JLHPA-88" value="No" style="text;html=1;align=center;verticalAlign=middle;resizable=0;points=[];autosize=1;strokeColor=none;fillColor=none;" vertex="1" parent="WIyWlLk6GJQsqaUBKTNV-1">
          <mxGeometry x="422.5" y="580" width="40" height="30" as="geometry" />
        </mxCell>
        <mxCell id="iKn1gVGQJVKMj80JLHPA-89" value="No" style="text;html=1;align=center;verticalAlign=middle;resizable=0;points=[];autosize=1;strokeColor=none;fillColor=none;" vertex="1" parent="WIyWlLk6GJQsqaUBKTNV-1">
          <mxGeometry x="447" y="750" width="40" height="30" as="geometry" />
        </mxCell>
        <mxCell id="iKn1gVGQJVKMj80JLHPA-90" value="No" style="text;html=1;align=center;verticalAlign=middle;resizable=0;points=[];autosize=1;strokeColor=none;fillColor=none;" vertex="1" parent="WIyWlLk6GJQsqaUBKTNV-1">
          <mxGeometry x="440" y="840" width="40" height="30" as="geometry" />
        </mxCell>
        <mxCell id="iKn1gVGQJVKMj80JLHPA-91" value="No" style="text;html=1;align=center;verticalAlign=middle;resizable=0;points=[];autosize=1;strokeColor=none;fillColor=none;" vertex="1" parent="WIyWlLk6GJQsqaUBKTNV-1">
          <mxGeometry x="-32.5" y="670" width="40" height="30" as="geometry" />
        </mxCell>
        <mxCell id="iKn1gVGQJVKMj80JLHPA-93" value="Yes" style="text;html=1;align=center;verticalAlign=middle;resizable=0;points=[];autosize=1;strokeColor=none;fillColor=none;" vertex="1" parent="WIyWlLk6GJQsqaUBKTNV-1">
          <mxGeometry x="360" y="640" width="40" height="30" as="geometry" />
        </mxCell>
        <mxCell id="iKn1gVGQJVKMj80JLHPA-94" value="Yes" style="text;html=1;align=center;verticalAlign=middle;resizable=0;points=[];autosize=1;strokeColor=none;fillColor=none;" vertex="1" parent="WIyWlLk6GJQsqaUBKTNV-1">
          <mxGeometry x="360" y="726.25" width="40" height="30" as="geometry" />
        </mxCell>
        <mxCell id="iKn1gVGQJVKMj80JLHPA-95" value="Yes" style="text;html=1;align=center;verticalAlign=middle;resizable=0;points=[];autosize=1;strokeColor=none;fillColor=none;" vertex="1" parent="WIyWlLk6GJQsqaUBKTNV-1">
          <mxGeometry x="360" y="911.25" width="40" height="30" as="geometry" />
        </mxCell>
      </root>
    </mxGraphModel>
  </diagram>
</mxfile>
